<?xml version="1.0" encoding="utf-8"?>
<!-- Generator: Adobe Illustrator 17.1.0, SVG Export Plug-In . SVG Version: 6.00 Build 0)  -->
<!DOCTYPE svg PUBLIC "-//W3C//DTD SVG 1.1//EN" "http://www.w3.org/Graphics/SVG/1.1/DTD/svg11.dtd">
<svg version="1.1" id="Layer_1" xmlns="http://www.w3.org/2000/svg" xmlns:xlink="http://www.w3.org/1999/xlink" x="0px" y="0px"
	 viewBox="0 351.1 612 89.6" enable-background="new 0 351.1 612 89.6" xml:space="preserve">
<path fill="#FFFFFF" d="M101.2,371.2c13.7,0,24.1,10.6,24.1,23.7c0,13.1-10.3,23.6-24.1,23.6S77.3,408,77.3,394.9
	C77.2,381.8,87.5,371.2,101.2,371.2 M101.2,407.2c7.1,0,12-5.5,12-12.3c0-6.9-4.9-12.5-12-12.5c-7.1,0-12,5.6-12,12.5
	C89.2,401.7,94.1,407.2,101.2,407.2 M305,372.2h-11.6v45.4h12.1V388c1.6-2.4,5.9-5.6,11-5.6c2.7,0,5.2,0.9,6.9,2.5
	c1.6,1.6,2.7,4,2.7,8.5v24.1h12.1v-23.1c0-7.7-1.6-12.3-4.6-15.8c-3.7-4.5-9.3-7.2-15.6-7.2c-8.1,0-12.7,4.2-12.7,8v-7.1H305z
	 M57.1,358.2l-23.9,31.2L9,358.2H0v59.3h12.1V380L28.7,402h9l16.7-21.7v37.3h12.1v-59.3H57.1z M33.2,389.4L9.3,358.2H0v59.3h12.1
	v-37.4l16.7,21.7h5 M268.2,372.2v7c-0.1-3.5-4.6-8-13.1-8c-12.1,0-21.8,10.3-21.8,23.7c0,6.2,2.2,11.7,5.7,15.8
	c4,4.6,10.2,7.7,16.8,7.7c8,0,12.3-4.5,12.3-8v7h11.5v-45.2H268.2z M256.5,406.7c-6.7,0-11.2-5.2-11.2-11.8c0-6.5,4.6-12,11.2-12
	c6.7,0,11.2,5.4,11.2,12C267.9,401.4,263.2,406.7,256.5,406.7 M211.1,372.2v7c-0.1-3.5-4.6-8-13.1-8c-12.1,0-21.8,10.2-21.8,23.7
	c0,6.2,2.2,11.7,5.7,15.8c4,4.6,10.2,7.7,16.8,7.7c7.7,0,11.7-4.2,12-7.7v5.1c0,5.7-0.9,8.6-2.7,10.6c-2,2.4-5.2,3.6-9.1,3.6
	c-7.4,0-11.5-3.9-13.8-6.6l-7.5,8c4.4,5.2,12.7,9.3,21.4,9.3c8.5,0,15.7-3.4,19.7-9.1c2.6-3.9,4.1-8.7,4.1-16.8v-42.6H211.1z
	 M199.4,406.5c-6.7,0-11.2-5.2-11.2-11.8c0-6.5,4.6-12,11.2-12c6.7,0,11.2,5.4,11.2,12C210.8,401.1,206.2,406.5,199.4,406.5
	 M172,379.7c0-5-4.1-9.1-9.1-9.1s-9.1,4.1-9.1,9.1c0,5.1,4.1,9.1,9.1,9.1C168,388.8,172,384.8,172,379.7 M148.5,372.2h-12.1v45.4
	h12.1V372.2z M383.5,400.5v-42.3h-12.8v50.9v3.4v5.1h40.8v-11.5h-27.9L383.5,400.5L383.5,400.5z M460.1,410.3
	c-4.4,5.2-11.6,8.1-18.4,8.1c-13.5,0-23.7-9.3-23.7-23.6c0-12.6,8.6-23.7,21.9-23.7c12.5,0,21.3,10.6,21.3,23.2
	c0,1.2-0.1,2.5-0.2,3.5h-31.3c0.6,6.4,5.7,10.7,12.2,10.7c5.1,0,9.2-2.9,11.3-5.2L460.1,410.3z M448.8,389c-0.4-4-4-8-9-8
	s-9.1,3.9-9.7,8H448.8z M504.1,391.1l11.3,26.3h8.4l18.9-45.4h-12.2l-11.1,26.4l-11.2-26.4h-8.4l-11.2,26.5l-11-26.4h-12.2
	l18.9,45.4h8.4L504.1,391.1z M558.5,351.1c-4.4,0-8,3.4-8,7.9c0,4.4,3.6,7.9,8,7.9c4.4,0,8-3.4,8-7.9
	C566.5,354.5,563,351.1,558.5,351.1 M564.6,372.2h-12.1v45.4h12.1V372.2z M576,412.3c5.2,3.9,11.8,6.1,18.1,6.1
	c9.5,0,17.9-5.4,17.9-14c0-15.7-21.8-13.3-21.8-19.2c0-2.4,2.7-3.6,6.1-3.6c3.2,0,6.4,1.4,8.7,3.1l5.6-8.7c-3-2.4-9.3-4.6-15.2-4.6
	c-9,0-17.3,5.4-17.3,14.1c0,14.6,21.8,12.1,21.8,18.9c0,2.2-2.5,3.9-5.7,3.9c-4.6,0-9.3-1.6-12.3-4.5L576,412.3z"/>
</svg>
